# xmcd
#
# Track frame offsets:
#	150
#	13079
#	25841
#	36985
#	47649
#	59790
#	72149
#	82816
#	94977
#	105878
#	119208
#	130924
#
# Disc length: 1918 seconds
#
# Revision: 0
# Processed by: cddbd v1.5.2PL0 Copyright (c) Steve Scherf et al.
# Submitted via: EasyCDDAExtractor 16.0.1.1
#
DISCID=a2077c0c
DTITLE=Al Dexter - Sings And Plays His Greatest Hits
DYEAR=1962
DGENRE=Country
TTITLE0=Pistol Packin' Mama
TTITLE1=Trifflin' Gal
TTITLE2=Down At The Roadside In
TTITLE3=New Broom Boogie
TTITLE4=Wine Women And Song
TTITLE5=Guitar Polka
TTITLE6=Rosalita
TTITLE7=Texas Waltz
TTITLE8=Honey Do You Think It's Wrong
TTITLE9=Too Late To Worry
TTITLE10=I Learned About Love From You
TTITLE11=So Long Pal
EXTD=
EXTT0=
EXTT1=
EXTT2=
EXTT3=
EXTT4=
EXTT5=
EXTT6=
EXTT7=
EXTT8=
EXTT9=
EXTT10=
EXTT11=
PLAYORDER=
